<svg id="Capa_1" enable-background="new 0 0 512 512" height="512" viewBox="0 0 512 512" width="512" xmlns="http://www.w3.org/2000/svg"><g><path d="m121 331h110v30h-110z"/><path d="m121 391h110v30h-110z"/><path d="m121 271h110v30h-110z"/><path d="m261 342.508v93.492c0 8.284-6.716 15-15 15h-140c-8.284 0-15-6.716-15-15v-180c0-8.284 6.716-15 15-15h125.805c5.676-53.039 41.091-97.306 89.195-115.762v-20.238c0-24.813-20.187-45-45-45h-25v-15c0-24.813-20.187-45-45-45h-60c-24.813 0-45 20.187-45 45v15h-25c-24.813 0-45 20.187-45 45v362c0 24.813 20.187 45 45 45h200c24.813 0 45-20.187 45-45v-80.238c-23.789-9.127-44.479-24.561-60-44.254z"/><path d="m371 146c-60.751 0-110 49.249-110 110s49.249 110 110 110 110-49.249 110-110-49.249-110-110-110zm0 180c-8.284 0-15-6.716-15-15s6.716-15 15-15 15 6.716 15 15-6.716 15-15 15zm15-65c0 8.284-6.716 15-15 15s-15-6.716-15-15v-60c0-8.284 6.716-15 15-15s15 6.716 15 15z"/></g></svg>