<svg id="Capa_1" enable-background="new 0 0 512 512" height="512" viewBox="0 0 512 512" width="512" xmlns="http://www.w3.org/2000/svg"><g><g><path d="m302.293 458.461-11.75-9.478c3.059-3.791 6.139-7.664 9.157-11.51l11.878 9.318c-3.06 3.9-6.184 7.826-9.285 11.67z"/></g><g><path d="m256 512s-49.742-53.026-92.921-115.802c-58.413-84.924-88.031-157.343-88.031-215.246 0-99.778 81.175-180.952 180.952-180.952s180.952 81.174 180.952 180.952c0 84.35-63.025 184.56-115.896 253.772l-11.996-9.164c51.457-67.362 112.796-164.479 112.796-244.608 0-91.453-74.403-165.856-165.856-165.856s-165.856 74.402-165.856 165.856c0 53.979 29.48 125.391 85.254 206.519 33.623 48.906 67.623 87.912 80.604 102.333 5.221-5.794 13.83-15.546 24.384-28.25l11.612 9.646c-17.907 21.556-35.998 40.8-35.998 40.8z"/></g><g><g><g><path d="m187.539 377.747-8.408-12.737 12.691-8.177 8.224 12.46z"/></g><g><path d="m165.897 334.192h15.096v15.096h-15.096z" transform="matrix(.854 -.52 .52 .854 -152.456 140.102)"/></g></g></g><g><path d="m256 317.921c-57.064 0-108.452-36.033-127.874-89.663l14.194-5.14c17.265 47.675 62.949 79.707 113.68 79.707 66.646 0 120.866-54.22 120.866-120.866s-54.22-120.867-120.866-120.867-120.866 54.22-120.866 120.866c0 9.282 1.055 18.527 3.135 27.477l-14.704 3.418c-2.341-10.07-3.527-20.464-3.527-30.895 0-74.97 60.992-135.963 135.963-135.963s135.963 60.992 135.963 135.963-60.994 135.963-135.964 135.963z"/></g><g><path d="m304.708 255.285-48.708-25.608-48.708 25.608 9.302-54.238-39.406-38.411 54.457-7.913 24.355-49.347 24.354 49.347 54.457 7.913-39.406 38.411zm-48.708-42.663 28.658 15.066-5.473-31.911 23.185-22.6-32.041-4.656-14.329-29.034-14.329 29.034-32.041 4.656 23.185 22.6-5.473 31.911z"/></g><g><g><g><path d="m192.158 117.271-10.653-10.696c3.635-3.62 7.686-7.05 12.385-10.485l8.909 12.187c-4.073 2.977-7.554 5.92-10.641 8.994z"/></g><g><path d="m214.649 101.019-6.896-13.429c5.014-2.575 10.075-4.691 15.044-6.291l4.627 14.37c-4.19 1.349-8.488 3.149-12.775 5.35z"/></g></g></g></g></svg>